<svg width="24" height="24" viewBox="0 0 24 24" fill="none" xmlns="http://www.w3.org/2000/svg">
<g id="6637751_language_languages_translation_icon 1">
<path id="Vector" fill-rule="evenodd" clip-rule="evenodd" d="M12 4C7.58172 4 4 7.58172 4 12C4 16.4183 7.58172 20 12 20C16.4183 20 20 16.4183 20 12C20 7.58172 16.4183 4 12 4ZM2 12C2 6.47715 6.47715 2 12 2C17.5228 2 22 6.47715 22 12C22 17.5228 17.5228 22 12 22C6.47715 22 2 17.5228 2 12Z" fill="#667085"/>
<path id="Vector_2" fill-rule="evenodd" clip-rule="evenodd" d="M21 13H3V11H21V13Z" fill="#667085"/>
<path id="Vector_3" fill-rule="evenodd" clip-rule="evenodd" d="M11.2925 20.2933C11.2927 20.2931 11.2929 20.2929 12 21C12.7071 21.7071 12.7073 21.7069 12.7076 21.7066L12.7096 21.7046L12.7135 21.7007L12.7256 21.6884C12.7355 21.6782 12.7492 21.6642 12.7663 21.6464C12.8005 21.6108 12.8486 21.5599 12.9085 21.4946C13.0284 21.3641 13.196 21.1754 13.3954 20.9344C13.7935 20.4533 14.3224 19.7591 14.8517 18.8991C15.9014 17.1932 17 14.7582 17 12C17 9.24186 15.9014 6.80682 14.8517 5.10091C14.3224 4.24088 13.7935 3.54667 13.3954 3.06557C13.196 2.82459 13.0284 2.6359 12.9085 2.50538C12.8486 2.44009 12.8005 2.38926 12.7663 2.35362C12.7492 2.3358 12.7355 2.32177 12.7256 2.31162L12.7135 2.29932L12.7096 2.29537L12.7082 2.29395C12.7079 2.29371 12.7071 2.2929 12 3.00001C11.2929 3.70712 11.2927 3.70692 11.2925 3.70673L11.2973 3.71165L11.3235 3.73868C11.3479 3.76408 11.3858 3.80407 11.4352 3.85792C11.5341 3.96568 11.679 4.12855 11.8546 4.3407C12.2065 4.76585 12.6776 5.38415 13.1483 6.14911C14.0986 7.69321 15 9.75816 15 12C15 14.2418 14.0986 16.3068 13.1483 17.8509C12.6776 18.6159 12.2065 19.2342 11.8546 19.6593C11.679 19.8715 11.5342 20.0343 11.4352 20.1421C11.3858 20.1959 11.3479 20.2359 11.3235 20.2613L11.2973 20.2884L11.2925 20.2933Z" fill="#667085"/>
<path id="Vector_4" fill-rule="evenodd" clip-rule="evenodd" d="M12.7075 20.2933C12.7073 20.2931 12.7071 20.2929 12 21C11.2929 21.7071 11.2927 21.7069 11.2924 21.7066L11.2904 21.7046L11.2865 21.7007L11.2744 21.6884C11.2645 21.6782 11.2508 21.6642 11.2337 21.6464C11.1995 21.6108 11.1514 21.5599 11.0915 21.4946C10.9716 21.3641 10.804 21.1754 10.6046 20.9344C10.2065 20.4533 9.6776 19.7591 9.14834 18.8991C8.09856 17.1932 7 14.7582 7 12C7 9.24186 8.09856 6.80682 9.14834 5.10091C9.6776 4.24088 10.2065 3.54667 10.6046 3.06557C10.804 2.82459 10.9716 2.6359 11.0915 2.50538C11.1514 2.44009 11.1995 2.38926 11.2337 2.35362C11.2508 2.3358 11.2645 2.32177 11.2744 2.31162L11.2865 2.29932L11.2904 2.29537L11.2918 2.29395C11.2921 2.29371 11.2929 2.2929 12 3.00001C12.7071 3.70712 12.7073 3.70692 12.7075 3.70673L12.7027 3.71165L12.6765 3.73868C12.6521 3.76408 12.6142 3.80407 12.5648 3.85792C12.4659 3.96568 12.321 4.12855 12.1454 4.3407C11.7935 4.76585 11.3224 5.38415 10.8517 6.14911C9.90144 7.69321 9 9.75816 9 12C9 14.2418 9.90144 16.3068 10.8517 17.8509C11.3224 18.6159 11.7935 19.2342 12.1454 19.6593C12.321 19.8715 12.4658 20.0343 12.5648 20.1421C12.6142 20.1959 12.6521 20.2359 12.6765 20.2613L12.7027 20.2884L12.7075 20.2933Z" fill="#667085"/>
</g>
</svg>
