<svg width="326" height="139" viewBox="0 0 326 139" fill="none" xmlns="http://www.w3.org/2000/svg">
<path d="M11.3654 27.5817C10.5002 26.1688 8.65333 25.7247 7.24034 26.59C5.82736 27.4552 5.38332 29.3021 6.24856 30.7151L11.3654 27.5817ZM197.193 20.0141L197.323 17.0169L197.322 17.0168L197.193 20.0141ZM158.161 122.961L160.233 120.792L160.233 120.791L158.161 122.961ZM325.216 4.15774C325.343 2.50574 324.107 1.06368 322.455 0.936817C320.803 0.809941 319.361 2.04629 319.234 3.69829L325.216 4.15774ZM0.064211 52.0885C-0.215579 53.7216 0.881462 55.2722 2.51452 55.552C4.14758 55.8318 5.69825 54.7348 5.97804 53.1017L0.064211 52.0885ZM7.38025 27.1521L7.50587 24.1547C5.99816 24.0915 4.67817 25.1581 4.42334 26.6455L7.38025 27.1521ZM33.5054 30.7068C35.1591 30.6043 36.4165 29.1805 36.3139 27.5269C36.2114 25.8732 34.7877 24.6158 33.134 24.7183L33.5054 30.7068ZM8.807 29.1484C6.24856 30.7151 6.24928 30.7162 6.25024 30.7178C6.25088 30.7188 6.25209 30.7208 6.25337 30.7229C6.25595 30.7271 6.25949 30.7329 6.264 30.7402C6.27302 30.7548 6.28591 30.7757 6.30263 30.8027C6.33608 30.8568 6.3849 30.9353 6.4489 31.0375C6.5769 31.2419 6.76565 31.541 7.01366 31.928C7.50964 32.7018 8.24281 33.827 9.20127 35.2489C11.1179 38.0922 13.9372 42.1241 17.5643 46.9049C24.813 56.4593 35.3153 69.0407 48.3137 81.1092C74.1752 105.12 110.628 127.738 151.295 119.045L150.041 113.177C112.355 121.233 77.8768 100.37 52.3962 76.7121C39.7236 64.9463 29.4518 52.6466 22.3443 43.2784C18.7933 38.5979 16.039 34.6582 14.1765 31.8952C13.2454 30.5139 12.5376 29.4274 12.065 28.6901C11.8288 28.3215 11.6513 28.0403 11.5342 27.8533C11.4757 27.7598 11.4322 27.6898 11.404 27.6443C11.3899 27.6215 11.3796 27.6048 11.3732 27.5944C11.37 27.5892 11.3677 27.5855 11.3664 27.5834C11.3658 27.5823 11.3655 27.5819 11.3652 27.5814C11.3652 27.5814 11.3654 27.5817 8.807 29.1484ZM151.295 119.045C191.476 110.455 212.538 86.045 218.947 63.1434C222.132 51.7619 221.717 40.6401 218.035 32.1077C214.313 23.4833 207.173 17.4445 197.323 17.0169L197.063 23.0112C204.206 23.3214 209.542 27.57 212.526 34.485C215.55 41.4921 216.07 51.1617 213.169 61.5265C207.407 82.1171 188.213 105.018 150.041 113.177L151.295 119.045ZM197.322 17.0168C187.904 16.6107 177.874 20.6887 168.945 27.321C159.976 33.9834 151.849 43.4143 146.212 54.2109C134.918 75.8391 133.439 103.501 156.089 125.131L160.233 120.791C140.05 101.518 141.095 76.9739 151.53 56.988C156.757 46.9774 164.295 38.2492 172.523 32.1375C180.792 25.9956 189.49 22.6846 197.063 23.0113L197.322 17.0168ZM156.089 125.13C167.628 136.152 183.776 139.778 201.182 137.811C218.584 135.845 237.525 128.278 255.205 116.516C290.529 93.0175 321.52 52.2827 325.216 4.15774L319.234 3.69829C315.714 49.5389 286.082 88.7696 251.882 111.521C234.801 122.884 216.755 130.013 200.508 131.849C184.265 133.684 170.103 130.219 160.233 120.792L156.089 125.13ZM5.97804 53.1017L10.3372 27.6587L4.42334 26.6455L0.064211 52.0885L5.97804 53.1017ZM7.38025 27.1521C7.25463 30.1494 7.25475 30.1494 7.25494 30.1495C7.25511 30.1495 7.25539 30.1495 7.25573 30.1495C7.25642 30.1495 7.25742 30.1496 7.25873 30.1496C7.26136 30.1497 7.26525 30.1499 7.27038 30.1501C7.28063 30.1505 7.29584 30.1512 7.31587 30.152C7.35594 30.1537 7.41527 30.1561 7.49277 30.1593C7.64776 30.1657 7.87538 30.1749 8.16669 30.1866C8.74927 30.21 9.58668 30.2431 10.6072 30.2817C12.6478 30.359 15.4228 30.4588 18.3579 30.5488C24.1442 30.7262 30.7986 30.8747 33.5054 30.7068L33.134 24.7183C30.7737 24.8647 24.4584 24.733 18.5418 24.5516C15.6254 24.4622 12.8656 24.3629 10.8343 24.286C9.81883 24.2475 8.986 24.2147 8.40733 24.1915C8.11801 24.1799 7.89225 24.1706 7.73902 24.1643C7.66241 24.1612 7.60392 24.1588 7.56469 24.1572C7.54508 24.1563 7.53027 24.1557 7.52042 24.1553C7.5155 24.1551 7.51181 24.155 7.50938 24.1549C7.50817 24.1548 7.50727 24.1548 7.50668 24.1547C7.50639 24.1547 7.50619 24.1547 7.50604 24.1547C7.50592 24.1547 7.50587 24.1547 7.38025 27.1521Z" fill="#9E77ED"/>
</svg>
